<svg width="38" height="39" viewBox="0 0 38 39" fill="none" xmlns="http://www.w3.org/2000/svg">
<g filter="url(#filter0_d_1_606)">
<path fill-rule="evenodd" clip-rule="evenodd" d="M19 32.8563C27.2843 32.8563 34 26.1406 34 17.8563C34 9.57205 27.2843 2.85632 19 2.85632C10.7157 2.85632 4 9.57205 4 17.8563C4 26.1406 10.7157 32.8563 19 32.8563Z" fill="white"/>
</g>
<path d="M19 27.5063C18.69 27.5063 18.39 27.4663 18.14 27.3763C14.32 26.0663 8.25 21.4163 8.25 14.5463C8.25 11.0463 11.08 8.2063 14.56 8.2063C16.25 8.2063 17.83 8.8663 19 10.0463C20.17 8.8663 21.75 8.2063 23.44 8.2063C26.92 8.2063 29.75 11.0563 29.75 14.5463C29.75 21.4263 23.68 26.0663 19.86 27.3763C19.61 27.4663 19.31 27.5063 19 27.5063ZM14.56 9.7063C11.91 9.7063 9.75 11.8763 9.75 14.5463C9.75 21.3763 16.32 25.1763 18.63 25.9663C18.81 26.0263 19.2 26.0263 19.38 25.9663C21.68 25.1763 28.26 21.3863 28.26 14.5463C28.26 11.8763 26.1 9.7063 23.45 9.7063C21.93 9.7063 20.52 10.4163 19.61 11.6463C19.33 12.0263 18.69 12.0263 18.41 11.6463C17.48 10.4063 16.08 9.7063 14.56 9.7063Z" fill="#909191"/>
<defs>
<filter id="filter0_d_1_606" x="0" y="0.856323" width="38" height="38" filterUnits="userSpaceOnUse" color-interpolation-filters="sRGB">
<feFlood flood-opacity="0" result="BackgroundImageFix"/>
<feColorMatrix in="SourceAlpha" type="matrix" values="0 0 0 0 0 0 0 0 0 0 0 0 0 0 0 0 0 0 127 0" result="hardAlpha"/>
<feOffset dy="2"/>
<feGaussianBlur stdDeviation="2"/>
<feColorMatrix type="matrix" values="0 0 0 0 0 0 0 0 0 0 0 0 0 0 0 0 0 0 0.163407 0"/>
<feBlend mode="normal" in2="BackgroundImageFix" result="effect1_dropShadow_1_606"/>
<feBlend mode="normal" in="SourceGraphic" in2="effect1_dropShadow_1_606" result="shape"/>
</filter>
</defs>
</svg>
