<svg width="30" height="31" viewBox="0 0 30 31" fill="none" xmlns="http://www.w3.org/2000/svg">
<path d="M26.2501 8.91247C26.2251 8.91247 26.1876 8.91247 26.1501 8.91247C19.5376 8.24997 12.9376 7.99997 6.40008 8.66247L3.85008 8.91247C3.32508 8.96247 2.86258 8.58747 2.81258 8.06247C2.76258 7.53747 3.13758 7.08747 3.65008 7.03747L6.20008 6.78747C12.8501 6.11247 19.5876 6.37497 26.3376 7.03747C26.8501 7.08747 27.2251 7.54997 27.1751 8.06247C27.1376 8.54997 26.7251 8.91247 26.2501 8.91247Z" fill="#909191"/>
<path d="M10.625 7.65C10.575 7.65 10.525 7.65 10.4625 7.6375C9.96245 7.55 9.61245 7.0625 9.69995 6.5625L9.97495 4.925C10.175 3.725 10.45 2.0625 13.3625 2.0625H16.6375C19.5625 2.0625 19.8375 3.7875 20.025 4.9375L20.2999 6.5625C20.3874 7.075 20.0374 7.5625 19.5374 7.6375C19.025 7.725 18.5375 7.375 18.4625 6.875L18.1875 5.25C18.0125 4.1625 17.9749 3.95 16.65 3.95H13.375C12.05 3.95 12.025 4.125 11.8375 5.2375L11.55 6.8625C11.475 7.325 11.075 7.65 10.625 7.65Z" fill="#909191"/>
<path d="M19.0125 28.9375H10.9875C6.625 28.9375 6.45 26.525 6.3125 24.575L5.5 11.9875C5.4625 11.475 5.8625 11.025 6.375 10.9875C6.9 10.9625 7.3375 11.35 7.375 11.8625L8.1875 24.45C8.325 26.35 8.375 27.0625 10.9875 27.0625H19.0125C21.6375 27.0625 21.6875 26.35 21.8125 24.45L22.625 11.8625C22.6625 11.35 23.1125 10.9625 23.625 10.9875C24.1375 11.025 24.5375 11.4625 24.5 11.9875L23.6875 24.575C23.55 26.525 23.375 28.9375 19.0125 28.9375Z" fill="#909191"/>
<path d="M17.0751 22.0625H12.9126C12.4001 22.0625 11.9751 21.6375 11.9751 21.125C11.9751 20.6125 12.4001 20.1875 12.9126 20.1875H17.0751C17.5876 20.1875 18.0126 20.6125 18.0126 21.125C18.0126 21.6375 17.5876 22.0625 17.0751 22.0625Z" fill="#909191"/>
<path d="M18.125 17.0625H11.875C11.3625 17.0625 10.9375 16.6375 10.9375 16.125C10.9375 15.6125 11.3625 15.1875 11.875 15.1875H18.125C18.6375 15.1875 19.0625 15.6125 19.0625 16.125C19.0625 16.6375 18.6375 17.0625 18.125 17.0625Z" fill="#909191"/>
</svg>
